{"title":"WWE.Hell.In.A.Cell.2017.10.08.HDTV.XviD-FICEK9","magnet":"magnet:?xt=urn:btih:d876415de9a77cbc9e64e9c756cd17193f43ecf2&dn=WWE.Hell.In.A.Cell.2017.10.08.HDTV.XviD-FICEK9&tr=udp%3A%2F%2Ftracker.leechers-paradise.org%3A6969&tr=udp%3A%2F%2Fzer0day.ch%3A1337&tr=udp%3A%2F%2Fopen.demonii.com%3A1337&tr=udp%3A%2F%2Ftracker.coppersurfer.tk%3A6969&tr=udp%3A%2F%2Fexodus.desync.com%3A6969","uploader":"FICEK9","categoryP":"video","categoryS":"tv_shows","size":"1563627830","seeders":"0","leechers":"0","description":"   General\r\n      Complete name : WWE.Hell.In.A.Cell.2017.10.08.HDTV.XviD-FICEK9.avi\r\n      Format : AVI\r\n      Format/Info : Audio Video Interleave\r\n      File size : 762 MiB, 730 MiB \r\n      Duration : 1h 48mn, 1h 44mn\r\n      Overall bit rate mode : Variable\r\n      Overall bit rate : 978 Kbps, 979 Kbps\r\n      Writing application : Lavf57.41.100\r\n   Video #0\r\n      ID : 0\r\n      Format : xvid\r\n      Codec ID : xvid\r\n      Duration : 1h 48mn\r\n      Bit rate : 856 Kbps\r\n      Width : 624 pixels\r\n      Height : 352 pixels\r\n      Display aspect ratio : 16:9\r\n      Frame rate : 29.970 fps\r\n      Bits/(Pixel*Frame) : 0.130\r\n      Stream size : 667 MiB (88%), 638 MiB (87%)\r\n   Audio #1\r\n      ID : 1\r\n      Format : MPEG Audio\r\n      Format version : Version 1\r\n      Format profile : Layer 3\r\n      Mode : Joint stereo\r\n      Codec ID : 55\r\n      Codec ID/Hint : MP3\r\n      Duration : 1h 48mn, 1h 44mn\r\n      Bit rate mode : Variable\r\n      Bit rate : 108 Kbps, 109 Kbps\r\n      Channel(s) : 2 channels\r\n      Sampling rate : 48.0 KHz\r\n      Compression mode : Lossy\r\n      Stream size : 84.0 MiB (11%), 81.0 MiB (11%)\r\n      Alignment : Aligned on interleaves\r\n      Interleave, duration : 24 ms (0.72 video frame)\r\n      Writing library : LAME3.99.5","last_updated":"2018-03-18T12:00:50.984Z","parsed":{"xt":"urn:btih:d876415de9a77cbc9e64e9c756cd17193f43ecf2","dn":"WWE.Hell.In.A.Cell.2017.10.08.HDTV.XviD-FICEK9","tr":["udp://exodus.desync.com:6969","udp://open.demonii.com:1337","udp://tracker.coppersurfer.tk:6969","udp://tracker.leechers-paradise.org:6969","udp://zer0day.ch:1337"],"infoHash":"d876415de9a77cbc9e64e9c756cd17193f43ecf2","infoHashBuffer":{"type":"Buffer","data":[216,118,65,93,233,167,124,188,158,100,233,199,86,205,23,25,63,67,236,242]},"name":"WWE.Hell.In.A.Cell.2017.10.08.HDTV.XviD-FICEK9","announce":["udp://exodus.desync.com:6969","udp://open.demonii.com:1337","udp://tracker.coppersurfer.tk:6969","udp://tracker.leechers-paradise.org:6969","udp://zer0day.ch:1337"],"urlList":[]}}